<svg width="49" height="49" viewBox="0 0 49 49" fill="none" xmlns="http://www.w3.org/2000/svg">
<mask id="mask0_104_13" style="mask-type:alpha" maskUnits="userSpaceOnUse" x="0" y="0" width="49" height="49">
<rect x="0.174683" y="0.252441" width="48" height="48" fill="#D9D9D9"/>
</mask>
<g mask="url(#mask0_104_13)">
<path d="M23.0402 7.77144V2.75244H25.3092V7.77144H23.0402ZM23.0402 45.7524V40.7334H25.3092V45.7524H23.0402ZM40.6557 25.3869V23.1179H45.6747V25.3869H40.6557ZM2.67468 25.3869V23.1179H7.69368V25.3869H2.67468ZM36.9672 13.0599L35.3362 11.4099L38.3862 8.37944L39.9977 10.0099L36.9672 13.0599ZM9.96318 40.1254L8.35168 38.4949L11.3822 35.4449L13.0132 37.0754L9.96318 40.1254ZM38.3862 40.1254L35.3362 37.0754L36.9672 35.4449L39.9977 38.4949L38.3862 40.1254ZM11.3822 13.0599L8.35168 10.0099L9.96318 8.37944L13.0132 11.4099L11.3822 13.0599ZM24.1702 34.6944C21.2578 34.6944 18.7902 33.6816 16.7672 31.6559C14.7442 29.6299 13.7327 27.1606 13.7327 24.2479C13.7327 21.3356 14.7455 18.8646 16.7712 16.8349C18.7972 14.8056 21.2665 13.7909 24.1792 13.7909C27.0915 13.7909 29.5625 14.8084 31.5922 16.8434C33.6215 18.8784 34.6362 21.3496 34.6362 24.2569C34.6362 27.1693 33.6187 29.6369 31.5837 31.6599C29.5487 33.6829 27.0775 34.6944 24.1702 34.6944ZM24.1677 32.4254C26.455 32.4254 28.3933 31.6361 29.9827 30.0574C31.5723 28.4791 32.3672 26.5464 32.3672 24.2594C32.3672 21.9721 31.5735 20.0338 29.9862 18.4444C28.3988 16.8548 26.4617 16.0599 24.1747 16.0599C21.8873 16.0599 19.9533 16.8536 18.3727 18.4409C16.792 20.0283 16.0017 21.9654 16.0017 24.2524C16.0017 26.5398 16.791 28.4738 18.3697 30.0544C19.948 31.6351 21.8807 32.4254 24.1677 32.4254Z" fill="#1C1B1F"/>
</g>
</svg>
