<svg width="49" height="49" viewBox="0 0 49 49" fill="none" xmlns="http://www.w3.org/2000/svg">
<mask id="mask0_104_7" style="mask-type:alpha" maskUnits="userSpaceOnUse" x="0" y="0" width="49" height="49">
<rect x="0.174683" y="0.252441" width="48" height="48" fill="#D9D9D9"/>
</mask>
<g mask="url(#mask0_104_7)">
<path d="M24.2322 41.2524C19.5102 41.2524 15.4963 39.5996 12.1907 36.2939C8.88533 32.9886 7.23267 28.9747 7.23267 24.2524C7.23267 19.7267 8.76783 15.8454 11.8382 12.6084C14.9085 9.37106 18.668 7.61772 23.1167 7.34839C23.2553 7.34839 23.4073 7.35356 23.5727 7.36389C23.738 7.37422 23.9707 7.38239 24.2707 7.38839C23.3657 8.41839 22.6663 9.61406 22.1727 10.9754C21.679 12.3371 21.4322 13.7627 21.4322 15.2524C21.4322 18.5301 22.5795 21.3162 24.8742 23.6109C27.1685 25.9052 29.9545 27.0524 33.2322 27.0524C34.7092 27.0524 36.1317 26.8242 37.4997 26.3679C38.8677 25.9116 40.0593 25.2681 41.0747 24.4374C41.0823 24.6834 41.0913 24.8706 41.1017 24.9989C41.1117 25.1269 41.1167 25.2499 41.1167 25.3679C40.8603 29.8166 39.1137 33.5761 35.8767 36.6464C32.6393 39.7171 28.7578 41.2524 24.2322 41.2524ZM24.2322 38.9829C27.6732 38.9829 30.6957 37.9414 33.2997 35.8584C35.9033 33.7751 37.5898 31.2807 38.3592 28.3754C37.5772 28.6907 36.7468 28.9272 35.8682 29.0849C34.9895 29.2429 34.1108 29.3219 33.2322 29.3219C29.3348 29.3219 26.0157 27.9514 23.2747 25.2104C20.5337 22.4694 19.1632 19.1501 19.1632 15.2524C19.1632 14.4781 19.2368 13.6677 19.3842 12.8214C19.5315 11.9754 19.7898 11.0396 20.1592 10.0139C17.0722 10.9526 14.5242 12.7437 12.5152 15.3874C10.5062 18.0311 9.50167 20.9861 9.50167 24.2524C9.50167 28.3447 10.9337 31.8229 13.7977 34.6869C16.6617 37.5509 20.1398 38.9829 24.2322 38.9829Z" fill="#f9fafb"/>
</g>
</svg>
